<?xml version="1.0" standalone="no"?>
<svg xmlns:xlink="http://www.w3.org/1999/xlink" id="wave" style="transform:rotate(180deg); transition: 0.3s" viewBox="0 0 1440 440" version="1.1" xmlns="http://www.w3.org/2000/svg"><defs><linearGradient id="sw-gradient-0" x1="0" x2="0" y1="1" y2="0"><stop stop-color="rgba(34, 34, 34, 1)" offset="0%"/><stop stop-color="rgba(34, 34, 34, 1)" offset="100%"/></linearGradient></defs><path style="transform:translate(0, 0px); opacity:1" fill="url(#sw-gradient-0)" d="M0,352L120,293.3C240,235,480,117,720,66C960,15,1200,29,1440,66C1680,103,1920,161,2160,154C2400,147,2640,73,2880,36.7C3120,0,3360,0,3600,58.7C3840,117,4080,235,4320,286C4560,337,4800,323,5040,300.7C5280,279,5520,249,5760,256.7C6000,264,6240,308,6480,308C6720,308,6960,264,7200,212.7C7440,161,7680,103,7920,102.7C8160,103,8400,161,8640,154C8880,147,9120,73,9360,88C9600,103,9840,205,10080,234.7C10320,264,10560,220,10800,205.3C11040,191,11280,205,11520,176C11760,147,12000,73,12240,66C12480,59,12720,117,12960,168.7C13200,220,13440,264,13680,286C13920,308,14160,308,14400,256.7C14640,205,14880,103,15120,66C15360,29,15600,59,15840,95.3C16080,132,16320,176,16560,227.3C16800,279,17040,337,17160,366.7L17280,396L17280,440L17160,440C17040,440,16800,440,16560,440C16320,440,16080,440,15840,440C15600,440,15360,440,15120,440C14880,440,14640,440,14400,440C14160,440,13920,440,13680,440C13440,440,13200,440,12960,440C12720,440,12480,440,12240,440C12000,440,11760,440,11520,440C11280,440,11040,440,10800,440C10560,440,10320,440,10080,440C9840,440,9600,440,9360,440C9120,440,8880,440,8640,440C8400,440,8160,440,7920,440C7680,440,7440,440,7200,440C6960,440,6720,440,6480,440C6240,440,6000,440,5760,440C5520,440,5280,440,5040,440C4800,440,4560,440,4320,440C4080,440,3840,440,3600,440C3360,440,3120,440,2880,440C2640,440,2400,440,2160,440C1920,440,1680,440,1440,440C1200,440,960,440,720,440C480,440,240,440,120,440L0,440Z"/></svg>